Nunito-800.ufo
<glyph name="two" format="1">
  <advance width="1266"/>
  <unicode hex="0032"/>
  <outline>
    <contour>
      <point x="263" y="0" type="curve" smooth="yes"/>
      <point x="983" y="0" type="line" smooth="yes"/>
      <point x="1043" y="0"/>
      <point x="1073" y="60"/>
      <point x="1073" y="119" type="curve" smooth="yes"/>
      <point x="1073" y="178"/>
      <point x="1043" y="235"/>
      <point x="983" y="235" type="curve" smooth="yes"/>
      <point x="446" y="235" type="line"/>
      <point x="857" y="589" type="line" smooth="yes"/>
      <point x="1025" y="734"/>
      <point x="1096" y="886"/>
      <point x="1096" y="1031" type="curve" smooth="yes"/>
      <point x="1096" y="1256"/>
      <point x="913" y="1442"/>
      <point x="640" y="1449" type="curve" smooth="yes"/>
      <point x="459" y="1453"/>
      <point x="316" y="1397"/>
      <point x="193" y="1325" type="curve" smooth="yes"/>
      <point x="56" y="1245"/>
      <point x="202" y="1063"/>
      <point x="290" y="1108" type="curve" smooth="yes"/>
      <point x="376" y="1154"/>
      <point x="444" y="1213"/>
      <point x="592" y="1213" type="curve" smooth="yes"/>
      <point x="708" y="1213"/>
      <point x="807" y="1134"/>
      <point x="807" y="1018" type="curve" smooth="yes"/>
      <point x="807" y="951"/>
      <point x="772" y="878"/>
      <point x="690" y="799" type="curve" smooth="yes"/>
      <point x="174" y="288" type="line" smooth="yes"/>
      <point x="70" y="183"/>
      <point x="107" y="0"/>
    </contour>
  </outline>
</glyph>
<glyph name="three" format="1">
  <advance width="1258"/>
  <unicode hex="0033"/>
  <outline>
    <contour>
      <point x="604" y="-21" type="curve" smooth="yes"/>
      <point x="900" y="-21"/>
      <point x="1139" y="106"/>
      <point x="1139" y="395" type="curve" smooth="yes"/>
      <point x="1139" y="580"/>
      <point x="1050" y="716"/>
      <point x="870" y="755" type="curve"/>
      <point x="934" y="868"/>
      <point x="1109" y="917"/>
      <point x="1109" y="1082" type="curve" smooth="yes"/>
      <point x="1109" y="1324"/>
      <point x="901" y="1476"/>
      <point x="594" y="1476" type="curve" smooth="yes"/>
      <point x="442" y="1476"/>
      <point x="312" y="1449"/>
      <point x="235" y="1407" type="curve" smooth="yes"/>
      <point x="109" y="1341"/>
      <point x="178" y="1167"/>
      <point x="289" y="1185" type="curve" smooth="yes"/>
      <point x="371" y="1204"/>
      <point x="499" y="1233"/>
      <point x="568" y="1232" type="curve" smooth="yes"/>
      <point x="687" y="1232"/>
      <point x="801" y="1176"/>
      <point x="801" y="1048" type="curve" smooth="yes"/>
      <point x="801" y="911"/>
      <point x="682" y="847"/>
      <point x="537" y="847" type="curve" smooth="yes"/>
      <point x="460" y="847" type="line" smooth="yes"/>
      <point x="396" y="847"/>
      <point x="365" y="794"/>
      <point x="365" y="742" type="curve" smooth="yes"/>
      <point x="365" y="689"/>
      <point x="396" y="639"/>
      <point x="460" y="639" type="curve" smooth="yes"/>
      <point x="539" y="639" type="line" smooth="yes"/>
      <point x="708" y="639"/>
      <point x="824" y="554"/>
      <point x="824" y="413" type="curve" smooth="yes"/>
      <point x="824" y="274"/>
      <point x="718" y="222"/>
      <point x="573" y="222" type="curve" smooth="yes"/>
      <point x="459" y="222"/>
      <point x="358" y="261"/>
      <point x="300" y="281" type="curve" smooth="yes"/>
      <point x="166" y="297"/>
      <point x="117" y="109"/>
      <point x="251" y="52" type="curve" smooth="yes"/>
      <point x="347" y="11"/>
      <point x="471" y="-21"/>
    </contour>
  </outline>
</glyph>
<glyph name="seven" format="1">
  <advance width="1258"/>
  <unicode hex="0037"/>
  <outline>
    <contour>
      <point x="500" y="0" type="curve" smooth="yes"/>
      <point x="554" y="0"/>
      <point x="606" y="29"/>
      <point x="636" y="91" type="curve" smooth="yes"/>
      <point x="1091" y="1115" type="line" smooth="yes"/>
      <point x="1120" y="1186"/>
      <point x="1144" y="1259"/>
      <point x="1144" y="1314" type="curve" smooth="yes"/>
      <point x="1144" y="1412"/>
      <point x="1075" y="1446"/>
      <point x="958" y="1446" type="curve" smooth="yes"/>
      <point x="233" y="1446" type="line" smooth="yes"/>
      <point x="139" y="1446"/>
      <point x="98" y="1393"/>
      <point x="98" y="1321" type="curve" smooth="yes"/>
      <point x="98" y="1245"/>
      <point x="146" y="1199"/>
      <point x="232" y="1199" type="curve" smooth="yes"/>
      <point x="804" y="1199" type="line"/>
      <point x="379" y="264" type="line" smooth="yes"/>
      <point x="361" y="222"/>
      <point x="344" y="179"/>
      <point x="345" y="142" type="curve"/>
      <point x="345" y="59"/>
      <point x="421" y="0"/>
    </contour>
  </outline>
</glyph>
<glyph name="colon" format="1">
  <advance width="633"/>
  <unicode hex="003A"/>
  <outline>
    <contour>
      <point x="316" y="-5" type="curve" smooth="yes"/>
      <point x="406" y="-5"/>
      <point x="469" y="65"/>
      <point x="469" y="145" type="curve" smooth="yes"/>
      <point x="469" y="231"/>
      <point x="401" y="295"/>
      <point x="316" y="295" type="curve" smooth="yes"/>
      <point x="225" y="295"/>
      <point x="163" y="224"/>
      <point x="163" y="145" type="curve" smooth="yes"/>
      <point x="163" y="62"/>
      <point x="228" y="-5"/>
    </contour>
    <contour>
      <point x="316" y="743" type="curve" smooth="yes"/>
      <point x="407" y="743"/>
      <point x="469" y="812"/>
      <point x="469" y="892" type="curve" smooth="yes"/>
      <point x="469" y="977"/>
      <point x="402" y="1042"/>
      <point x="316" y="1042" type="curve" smooth="yes"/>
      <point x="225" y="1042"/>
      <point x="163" y="971"/>
      <point x="163" y="892" type="curve" smooth="yes"/>
      <point x="163" y="805"/>
      <point x="229" y="743"/>
    </contour>
  </outline>
</glyph>
<glyph name="question" format="1">
  <advance width="1056"/>
  <unicode hex="003F"/>
  <outline>
    <contour>
      <point x="299" y="480" type="line"/>
      <point x="301" y="326"/>
      <point x="555" y="338"/>
      <point x="554" y="481" type="curve" smooth="yes"/>
      <point x="554" y="575" type="line" smooth="yes"/>
      <point x="553" y="706"/>
      <point x="949" y="757"/>
      <point x="949" y="1104" type="curve" smooth="yes"/>
      <point x="949" y="1378"/>
      <point x="738" y="1496"/>
      <point x="490" y="1496" type="curve" smooth="yes"/>
      <point x="391" y="1496"/>
      <point x="282" y="1486"/>
      <point x="180" y="1457" type="curve" smooth="yes"/>
      <point x="114" y="1438"/>
      <point x="87" y="1389"/>
      <point x="87" y="1343" type="curve" smooth="yes"/>
      <point x="87" y="1277"/>
      <point x="136" y="1223"/>
      <point x="196" y="1228" type="curve" smooth="yes"/>
      <point x="262" y="1236"/>
      <point x="347" y="1250"/>
      <point x="421" y="1250" type="curve" smooth="yes"/>
      <point x="527" y="1250"/>
      <point x="626" y="1206"/>
      <point x="626" y="1076" type="curve" smooth="yes"/>
      <point x="626" y="870"/>
      <point x="297" y="791"/>
      <point x="297" y="613" type="curve" smooth="yes"/>
    </contour>
    <contour>
      <point x="428" y="-48" type="curve" smooth="yes"/>
      <point x="518" y="-48"/>
      <point x="581" y="21"/>
      <point x="581" y="103" type="curve" smooth="yes"/>
      <point x="581" y="187"/>
      <point x="514" y="252"/>
      <point x="428" y="252" type="curve" smooth="yes"/>
      <point x="335" y="252"/>
      <point x="274" y="181"/>
      <point x="274" y="103" type="curve" smooth="yes"/>
      <point x="274" y="21"/>
      <point x="338" y="-48"/>
    </contour>
  </outline>
</glyph>
<glyph name="at" format="1">
  <advance width="1638"/>
  <unicode hex="0040"/>
  <outline>
    <contour>
      <point x="810" y="-29" type="curve" smooth="yes"/>
      <point x="908" y="-29"/>
      <point x="1008" y="-14"/>
      <point x="1113" y="14" type="curve" smooth="yes"/>
      <point x="1153" y="25"/>
      <point x="1173" y="46"/>
      <point x="1173" y="82" type="curve" smooth="yes"/>
      <point x="1173" y="118"/>
      <point x="1147" y="152"/>
      <point x="1101" y="152" type="curve" smooth="yes"/>
      <point x="1094" y="152"/>
      <point x="1087" y="151"/>
      <point x="1082" y="149" type="curve" smooth="yes"/>
      <point x="991" y="123"/>
      <point x="907" y="113"/>
      <point x="803" y="113" type="curve" smooth="yes"/>
      <point x="483" y="124"/>
      <point x="213" y="323"/>
      <point x="213" y="716" type="curve" smooth="yes"/>
      <point x="213" y="1124"/>
      <point x="562" y="1370"/>
      <point x="895" y="1370" type="curve" smooth="yes"/>
      <point x="1166" y="1370"/>
      <point x="1404" y="1204"/>
      <point x="1404" y="857" type="curve" smooth="yes"/>
      <point x="1404" y="633"/>
      <point x="1271" y="435"/>
      <point x="1143" y="435" type="curve" smooth="yes"/>
      <point x="1110" y="435"/>
      <point x="1098" y="455"/>
      <point x="1098" y="487" type="curve" smooth="yes"/>
      <point x="1098" y="520"/>
      <point x="1112" y="576"/>
      <point x="1129" y="639" type="curve" smooth="yes"/>
      <point x="1240" y="1021" type="line"/>
      <point x="1244" y="1036"/>
      <point x="1250" y="1053"/>
      <point x="1250" y="1068" type="curve" smooth="yes"/>
      <point x="1250" y="1113"/>
      <point x="1214" y="1137"/>
      <point x="1176" y="1137" type="curve" smooth="yes"/>
      <point x="1139" y="1137"/>
      <point x="1107" y="1117"/>
      <point x="1094" y="1076" type="curve" smooth="yes"/>
      <point x="1086" y="1049" type="line"/>
      <point x="1036" y="1137"/>
      <point x="947" y="1177"/>
      <point x="849" y="1177" type="curve" smooth="yes"/>
      <point x="568" y="1177"/>
      <point x="376" y="894"/>
      <point x="376" y="634" type="curve" smooth="yes"/>
      <point x="376" y="446"/>
      <point x="493" y="295"/>
      <point x="685" y="295" type="curve" smooth="yes"/>
      <point x="799" y="295"/>
      <point x="887" y="338"/>
      <point x="953" y="420" type="curve"/>
      <point x="966" y="341"/>
      <point x="1041" y="306"/>
      <point x="1110" y="306" type="curve" smooth="yes"/>
      <point x="1336" y="306"/>
      <point x="1566" y="545"/>
      <point x="1566" y="881" type="curve" smooth="yes"/>
      <point x="1566" y="1315"/>
      <point x="1235" y="1510"/>
      <point x="894" y="1510" type="curve" smooth="yes"/>
      <point x="470" y="1510"/>
      <point x="45" y="1220"/>
      <point x="45" y="725" type="curve" smooth="yes"/>
      <point x="45" y="246"/>
      <point x="380" y="-29"/>
    </contour>
    <contour>
      <point x="729" y="440" type="curve" smooth="yes"/>
      <point x="620" y="440"/>
      <point x="572" y="521"/>
      <point x="572" y="631" type="curve" smooth="yes"/>
      <point x="572" y="836"/>
      <point x="694" y="1029"/>
      <point x="862" y="1029" type="curve" smooth="yes"/>
      <point x="989" y="1029"/>
      <point x="1047" y="923"/>
      <point x="1047" y="923" type="curve" smooth="yes"/>
      <point x="957" y="589" type="line"/>
      <point x="931" y="506"/>
      <point x="837" y="440"/>
    </contour>
  </outline>
</glyph>
<glyph name="A" format="1">
  <advance width="1476"/>
  <unicode hex="0041"/>
  <outline>
    <contour>
      <point x="737" y="1438" type="move" name="top"/>
    </contour>
    <contour>
      <point x="1265" y="19" type="move" name="ogonek"/>
    </contour>
    <contour>
      <point x="350" y="109" type="curve" smooth="yes"/>
      <point x="739" y="1177" type="line"/>
      <point x="739" y="1464" type="line"/>
      <point x="636" y="1464"/>
      <point x="547" y="1430"/>
      <point x="479" y="1245" type="curve" smooth="yes"/>
      <point x="70" y="198" type="line" smooth="yes"/>
      <point x="-2" y="1"/>
      <point x="281" y="-91"/>
    </contour>
    <contour>
      <point x="1128" y="109" type="line"/>
      <point x="1198" y="-91"/>
      <point x="1480" y="1"/>
      <point x="1409" y="198" type="curve" smooth="yes"/>
      <point x="1000" y="1245" type="line" smooth="yes"/>
      <point x="931" y="1430"/>
      <point x="842" y="1464"/>
      <point x="739" y="1464" type="curve"/>
      <point x="739" y="1177" type="line"/>
    </contour>
    <contour>
      <point x="293" y="331" type="line"/>
      <point x="1199" y="331" type="line"/>
      <point x="1127" y="530" type="line"/>
      <point x="363" y="530" type="line"/>
    </contour>
  </outline>
</glyph>
<glyph name="F" format="1">
  <advance width="1170"/>
  <unicode hex="0046"/>
  <outline>
    <contour>
      <point x="319" y="0" type="curve" smooth="yes"/>
      <point x="405" y="0"/>
      <point x="481" y="69"/>
      <point x="481" y="169" type="curve" smooth="yes"/>
      <point x="481" y="623" type="line"/>
      <point x="969" y="623" type="line" smooth="yes"/>
      <point x="1038" y="623"/>
      <point x="1084" y="678"/>
      <point x="1084" y="741" type="curve" smooth="yes"/>
      <point x="1084" y="804"/>
      <point x="1038" y="860"/>
      <point x="969" y="860" type="curve" smooth="yes"/>
      <point x="481" y="860" type="line"/>
      <point x="481" y="1206" type="line"/>
      <point x="998" y="1206" type="line" smooth="yes"/>
      <point x="1068" y="1206"/>
      <point x="1113" y="1263"/>
      <point x="1113" y="1325" type="curve" smooth="yes"/>
      <point x="1113" y="1389"/>
      <point x="1068" y="1446"/>
      <point x="998" y="1446" type="curve" smooth="yes"/>
      <point x="345" y="1446" type="line" smooth="yes"/>
      <point x="246" y="1446"/>
      <point x="160" y="1390"/>
      <point x="160" y="1283" type="curve" smooth="yes"/>
      <point x="160" y="169" type="line" smooth="yes"/>
      <point x="160" y="69"/>
      <point x="233" y="0"/>
    </contour>
  </outline>
</glyph>
<glyph name="L" format="1">
  <advance width="1161"/>
  <unicode hex="004C"/>
  <outline>
    <contour>
      <point x="513" y="1446" type="move" name="top"/>
    </contour>
    <contour>
      <point x="674" y="0" type="move" name="bot"/>
    </contour>
    <contour>
      <point x="323" y="0" type="curve" smooth="yes"/>
      <point x="1021" y="0" type="line" smooth="yes"/>
      <point x="1091" y="0"/>
      <point x="1138" y="58"/>
      <point x="1138" y="122" type="curve" smooth="yes"/>
      <point x="1138" y="186"/>
      <point x="1091" y="244"/>
      <point x="1021" y="244" type="curve" smooth="yes"/>
      <point x="482" y="244" type="line"/>
      <point x="482" y="1278" type="line" smooth="yes"/>
      <point x="482" y="1377"/>
      <point x="407" y="1446"/>
      <point x="322" y="1446" type="curve" smooth="yes"/>
      <point x="235" y="1446"/>
      <point x="161" y="1377"/>
      <point x="161" y="1278" type="curve" smooth="yes"/>
      <point x="161" y="217" type="line" smooth="yes"/>
      <point x="161" y="106"/>
      <point x="213" y="0"/>
    </contour>
  </outline>
</glyph>
<glyph name="M" format="1">
  <advance width="1971"/>
  <unicode hex="004D"/>
  <outline>
    <contour>
      <point x="1002" y="1438" type="move" name="top"/>
    </contour>
    <contour>
      <point x="981" y="59" type="curve"/>
      <point x="981" y="434" type="line"/>
      <point x="656" y="1227" type="line" smooth="yes"/>
      <point x="538" y="1532"/>
      <point x="163" y="1438"/>
      <point x="163" y="1209" type="curve" smooth="yes"/>
      <point x="163" y="122" type="line" smooth="yes"/>
      <point x="163" y="-39"/>
      <point x="444" y="-42"/>
      <point x="444" y="122" type="curve" smooth="yes"/>
      <point x="444" y="1089" type="line"/>
      <point x="796" y="221" type="line" smooth="yes"/>
      <point x="837" y="114"/>
      <point x="891" y="59"/>
    </contour>
    <contour>
      <point x="982" y="59" type="line"/>
      <point x="1072" y="59"/>
      <point x="1125" y="115"/>
      <point x="1166" y="221" type="curve" smooth="yes"/>
      <point x="1519" y="1089" type="line"/>
      <point x="1519" y="122" type="line" smooth="yes"/>
      <point x="1519" y="-42"/>
      <point x="1800" y="-39"/>
      <point x="1800" y="122" type="curve" smooth="yes"/>
      <point x="1800" y="1209" type="line" smooth="yes"/>
      <point x="1800" y="1438"/>
      <point x="1425" y="1532"/>
      <point x="1307" y="1227" type="curve" smooth="yes"/>
      <point x="982" y="434" type="line"/>
    </contour>
  </outline>
</glyph>
<glyph name="N" format="1">
  <advance width="1585"/>
  <unicode hex="004E"/>
  <outline>
    <contour>
      <point x="841" y="1445" type="move" name="top"/>
    </contour>
    <contour>
      <point x="820" y="0" type="move" name="bot"/>
    </contour>
    <contour>
      <point x="298" y="0" type="curve" smooth="yes"/>
      <point x="371" y="0"/>
      <point x="439" y="57"/>
      <point x="439" y="139" type="curve" smooth="yes"/>
      <point x="439" y="992" type="line"/>
      <point x="1069" y="129" type="line" smooth="yes"/>
      <point x="1123" y="54"/>
      <point x="1196" y="0"/>
      <point x="1263" y="0" type="curve" smooth="yes"/>
      <point x="1381" y="0"/>
      <point x="1426" y="102"/>
      <point x="1426" y="230" type="curve" smooth="yes"/>
      <point x="1426" y="1307" type="line" smooth="yes"/>
      <point x="1426" y="1390"/>
      <point x="1360" y="1447"/>
      <point x="1286" y="1447" type="curve" smooth="yes"/>
      <point x="1212" y="1447"/>
      <point x="1147" y="1389"/>
      <point x="1147" y="1307" type="curve" smooth="yes"/>
      <point x="1147" y="459" type="line"/>
      <point x="516" y="1322" type="line" smooth="yes"/>
      <point x="465" y="1395"/>
      <point x="391" y="1446"/>
      <point x="322" y="1447" type="curve" smooth="yes"/>
      <point x="233" y="1447"/>
      <point x="159" y="1380"/>
      <point x="159" y="1261" type="curve" smooth="yes"/>
      <point x="159" y="139" type="line" smooth="yes"/>
      <point x="159" y="57"/>
      <point x="224" y="0"/>
    </contour>
  </outline>
</glyph>
<glyph name="P" format="1">
  <advance width="1345"/>
  <unicode hex="0050"/>
  <outline>
    <contour>
      <point x="702" y="1438" type="move" name="top"/>
    </contour>
    <contour>
      <point x="321" y="0" type="curve" smooth="yes"/>
      <point x="407" y="0"/>
      <point x="482" y="68"/>
      <point x="482" y="168" type="curve" smooth="yes"/>
      <point x="482" y="565" type="line"/>
      <point x="753" y="565" type="line" smooth="yes"/>
      <point x="1097" y="565"/>
      <point x="1305" y="697"/>
      <point x="1305" y="1007" type="curve" smooth="yes"/>
      <point x="1305" y="1345"/>
      <point x="1078" y="1447"/>
      <point x="765" y="1447" type="curve" smooth="yes"/>
      <point x="351" y="1447" type="line" smooth="yes"/>
      <point x="203" y="1447"/>
      <point x="161" y="1350"/>
      <point x="161" y="1229" type="curve" smooth="yes"/>
      <point x="161" y="168" type="line" smooth="yes"/>
      <point x="161" y="68"/>
      <point x="235" y="0"/>
    </contour>
    <contour>
      <point x="482" y="779" type="line"/>
      <point x="482" y="1220" type="line"/>
      <point x="728" y="1220" type="line" smooth="yes"/>
      <point x="894" y="1220"/>
      <point x="990" y="1188"/>
      <point x="990" y="1007" type="curve" smooth="yes"/>
      <point x="990" y="822"/>
      <point x="894" y="782"/>
      <point x="717" y="779" type="curve" smooth="yes"/>
    </contour>
  </outline>
</glyph>
<glyph name="Q" format="1">
  <advance width="1614"/>
  <unicode hex="0051"/>
  <outline>
    <contour>
      <point x="812" y="-34" type="curve" smooth="yes"/>
      <point x="873" y="-34"/>
      <point x="958" y="-21"/>
      <point x="1008" y="-13" type="curve"/>
      <point x="1019" y="-13"/>
      <point x="1383" y="-2"/>
      <point x="1429" y="-1" type="curve" smooth="yes"/>
      <point x="1519" y="3"/>
      <point x="1563" y="45"/>
      <point x="1563" y="114" type="curve" smooth="yes"/>
      <point x="1563" y="192"/>
      <point x="1501" y="224"/>
      <point x="1425" y="224" type="curve" smooth="yes"/>
      <point x="1297" y="224" type="line"/>
      <point x="1423" y="348"/>
      <point x="1508" y="523"/>
      <point x="1508" y="731" type="curve" smooth="yes"/>
      <point x="1508" y="1186"/>
      <point x="1266" y="1480"/>
      <point x="810" y="1480" type="curve" smooth="yes"/>
      <point x="347" y="1480"/>
      <point x="106" y="1167"/>
      <point x="106" y="722" type="curve" smooth="yes"/>
      <point x="106" y="267"/>
      <point x="355" y="-34"/>
    </contour>
    <contour>
      <point x="810" y="200" type="curve" smooth="yes"/>
      <point x="557" y="200"/>
      <point x="436" y="396"/>
      <point x="436" y="722" type="curve" smooth="yes"/>
      <point x="436" y="1041"/>
      <point x="556" y="1245"/>
      <point x="810" y="1245" type="curve" smooth="yes"/>
      <point x="1065" y="1245"/>
      <point x="1182" y="1041"/>
      <point x="1182" y="722" type="curve" smooth="yes"/>
      <point x="1182" y="395"/>
      <point x="1061" y="200"/>
    </contour>
  </outline>
</glyph>
<glyph name="S" format="1">
  <advance width="1345"/>
  <unicode hex="0053"/>
  <outline>
    <contour>
      <point x="682" y="1438" type="move" name="top"/>
    </contour>
    <contour>
      <point x="676" y="0" type="move" name="bot"/>
    </contour>
    <contour>
      <point x="675" y="-30" type="curve" smooth="yes"/>
      <point x="1032" y="-30"/>
      <point x="1258" y="139"/>
      <point x="1258" y="414" type="curve" smooth="yes"/>
      <point x="1258" y="660"/>
      <point x="1095" y="759"/>
      <point x="832" y="840" type="curve" smooth="yes"/>
      <point x="806" y="849"/>
      <point x="622" y="899"/>
      <point x="597" y="908" type="curve" smooth="yes"/>
      <point x="492" y="942"/>
      <point x="423" y="989"/>
      <point x="423" y="1078" type="curve" smooth="yes"/>
      <point x="423" y="1203"/>
      <point x="560" y="1244"/>
      <point x="705" y="1244" type="curve" smooth="yes"/>
      <point x="844" y="1244"/>
      <point x="950" y="1208"/>
      <point x="1051" y="1152" type="curve" smooth="yes"/>
      <point x="1159" y="1093"/>
      <point x="1259" y="1263"/>
      <point x="1169" y="1345" type="curve"/>
      <point x="1071" y="1432"/>
      <point x="864" y="1484"/>
      <point x="688" y="1484" type="curve" smooth="yes"/>
      <point x="349" y="1484"/>
      <point x="117" y="1322"/>
      <point x="117" y="1060" type="curve" smooth="yes"/>
      <point x="117" y="857"/>
      <point x="216" y="759"/>
      <point x="447" y="677" type="curve" smooth="yes"/>
      <point x="778" y="567" type="line" smooth="yes"/>
      <point x="882" y="532"/>
      <point x="948" y="486"/>
      <point x="948" y="387" type="curve" smooth="yes"/>
      <point x="948" y="263"/>
      <point x="824" y="210"/>
      <point x="671" y="210" type="curve" smooth="yes"/>
      <point x="518" y="210"/>
      <point x="391" y="262"/>
      <point x="302" y="309" type="curve" smooth="yes"/>
      <point x="182" y="365"/>
      <point x="30" y="215"/>
      <point x="148" y="117" type="curve" smooth="yes"/>
      <point x="252" y="36"/>
      <point x="443" y="-30"/>
    </contour>
  </outline>
</glyph>
<glyph name="U" format="1">
  <advance width="1527"/>
  <unicode hex="0055"/>
  <outline>
    <contour>
      <point x="777" y="1438" type="move" name="top"/>
    </contour>
    <contour>
      <point x="924" y="9" type="move" name="ogonek"/>
    </contour>
    <contour>
      <point x="763" y="-30" type="curve" smooth="yes"/>
      <point x="1108" y="-30"/>
      <point x="1372" y="144"/>
      <point x="1372" y="495" type="curve" smooth="yes"/>
      <point x="1372" y="1282" type="line" smooth="yes"/>
      <point x="1372" y="1381"/>
      <point x="1298" y="1450"/>
      <point x="1212" y="1450" type="curve" smooth="yes"/>
      <point x="1126" y="1450"/>
      <point x="1051" y="1381"/>
      <point x="1051" y="1282" type="curve" smooth="yes"/>
      <point x="1051" y="502" type="line" smooth="yes"/>
      <point x="1051" y="296"/>
      <point x="906" y="210"/>
      <point x="763" y="210" type="curve" smooth="yes"/>
      <point x="621" y="210"/>
      <point x="477" y="296"/>
      <point x="477" y="502" type="curve" smooth="yes"/>
      <point x="476" y="1282" type="line" smooth="yes"/>
      <point x="476" y="1381"/>
      <point x="401" y="1450"/>
      <point x="316" y="1450" type="curve" smooth="yes"/>
      <point x="229" y="1450"/>
      <point x="156" y="1381"/>
      <point x="156" y="1282" type="curve" smooth="yes"/>
      <point x="156" y="495" type="line" smooth="yes"/>
      <point x="156" y="141"/>
      <point x="421" y="-30"/>
    </contour>
  </outline>
</glyph>
<glyph name="W" format="1">
  <advance width="2127"/>
  <unicode hex="0057"/>
  <outline>
    <contour>
      <point x="1070" y="1438" type="move" name="top"/>
    </contour>
    <contour>
      <point x="339" y="153" type="line"/>
      <point x="379" y="-19"/>
      <point x="732" y="-38"/>
      <point x="789" y="172" type="curve" smooth="yes"/>
      <point x="1071" y="1127" type="line"/>
      <point x="1071" y="1447" type="line"/>
      <point x="947" y="1447"/>
      <point x="888" y="1372"/>
      <point x="850" y="1235" type="curve" smooth="yes"/>
      <point x="579" y="318" type="line"/>
      <point x="345" y="1324" type="line" smooth="yes"/>
      <point x="298" y="1540"/>
      <point x="13" y="1458"/>
      <point x="59" y="1268" type="curve" smooth="yes"/>
    </contour>
    <contour>
      <point x="1803" y="153" type="curve" smooth="yes"/>
      <point x="2083" y="1268" type="line" smooth="yes"/>
      <point x="2129" y="1458"/>
      <point x="1844" y="1540"/>
      <point x="1797" y="1324" type="curve" smooth="yes"/>
      <point x="1563" y="318" type="line"/>
      <point x="1292" y="1235" type="line" smooth="yes"/>
      <point x="1254" y="1372"/>
      <point x="1195" y="1447"/>
      <point x="1071" y="1447" type="curve"/>
      <point x="1071" y="1127" type="line"/>
      <point x="1353" y="172" type="line" smooth="yes"/>
      <point x="1410" y="-38"/>
      <point x="1763" y="-19"/>
    </contour>
  </outline>
</glyph>
<glyph name="Y" format="1">
  <advance width="1348"/>
  <unicode hex="0059"/>
  <outline>
    <contour>
      <point x="689" y="1438" type="move" name="top"/>
    </contour>
    <contour>
      <point x="512" y="162" type="line"/>
      <point x="512" y="-56"/>
      <point x="834" y="-55"/>
      <point x="834" y="162" type="curve" smooth="yes"/>
      <point x="834" y="574" type="line"/>
      <point x="1241" y="1232" type="line" smooth="yes"/>
      <point x="1341" y="1401"/>
      <point x="1103" y="1529"/>
      <point x="1006" y="1354" type="curve" smooth="yes"/>
      <point x="689" y="820" type="line"/>
      <point x="384" y="1341" type="line" smooth="yes"/>
      <point x="267" y="1555"/>
      <point x="6" y="1392"/>
      <point x="115" y="1206" type="curve" smooth="yes"/>
      <point x="512" y="566" type="line"/>
    </contour>
  </outline>
</glyph>
<glyph name="a" format="1">
  <advance width="1087"/>
  <unicode hex="0061"/>
  <outline>
    <contour>
      <point x="559" y="1001" type="move" name="top"/>
    </contour>
    <contour>
      <point x="823" y="30" type="move" name="ogonek"/>
    </contour>
    <contour>
      <point x="401" y="-12" type="curve" smooth="yes"/>
      <point x="542" y="-13"/>
      <point x="658" y="47"/>
      <point x="705" y="167" type="curve"/>
      <point x="705" y="139" type="line" smooth="yes"/>
      <point x="705" y="-47"/>
      <point x="962" y="-48"/>
      <point x="962" y="138" type="curve" smooth="yes"/>
      <point x="962" y="619" type="line" smooth="yes"/>
      <point x="962" y="914"/>
      <point x="785" y="1019"/>
      <point x="540" y="1019" type="curve" smooth="yes"/>
      <point x="390" y="1019"/>
      <point x="251" y="981"/>
      <point x="166" y="940" type="curve" smooth="yes"/>
      <point x="64" y="892"/>
      <point x="138" y="730"/>
      <point x="238" y="767" type="curve" smooth="yes"/>
      <point x="303" y="791"/>
      <point x="406" y="832"/>
      <point x="525" y="832" type="curve" smooth="yes"/>
      <point x="633" y="832"/>
      <point x="696" y="782"/>
      <point x="696" y="661" type="curve" smooth="yes"/>
      <point x="696" y="591" type="line"/>
      <point x="247" y="591"/>
      <point x="63" y="545"/>
      <point x="63" y="274" type="curve" smooth="yes"/>
      <point x="63" y="95"/>
      <point x="209" y="-11"/>
    </contour>
    <contour>
      <point x="444" y="153" type="curve" smooth="yes"/>
      <point x="361" y="157"/>
      <point x="307" y="206"/>
      <point x="307" y="294" type="curve" smooth="yes"/>
      <point x="306" y="441"/>
      <point x="420" y="455"/>
      <point x="695" y="455" type="curve"/>
      <point x="695" y="422" type="line" smooth="yes"/>
      <point x="695" y="258"/>
      <point x="564" y="149"/>
    </contour>
  </outline>
</glyph>
<glyph name="i" format="1">
  <advance width="526"/>
  <unicode hex="0069"/>
  <outline>
    <contour>
      <point x="268" y="0" type="curve" smooth="yes"/>
      <point x="358" y="0"/>
      <point x="406" y="58"/>
      <point x="406" y="165" type="curve" smooth="yes"/>
      <point x="406" y="839" type="line" smooth="yes"/>
      <point x="406" y="946"/>
      <point x="353" y="1004"/>
      <point x="263" y="1004" type="curve" smooth="yes"/>
      <point x="176" y="1004"/>
      <point x="127" y="946"/>
      <point x="127" y="839" type="curve" smooth="yes"/>
      <point x="127" y="165" type="line" smooth="yes"/>
      <point x="127" y="57"/>
      <point x="177" y="0"/>
    </contour>
    <contour>
      <point x="266" y="1205" type="curve" smooth="yes"/>
      <point x="360" y="1205"/>
      <point x="424" y="1263"/>
      <point x="424" y="1350" type="curve" smooth="yes"/>
      <point x="424" y="1437"/>
      <point x="361" y="1496"/>
      <point x="267" y="1496" type="curve" smooth="yes"/>
      <point x="173" y="1496"/>
      <point x="109" y="1437"/>
      <point x="109" y="1350" type="curve" smooth="yes"/>
      <point x="109" y="1263"/>
      <point x="173" y="1205"/>
    </contour>
  </outline>
</glyph>
<glyph name="j" format="1">
  <advance width="544"/>
  <unicode hex="006A"/>
  <outline>
    <contour>
      <point x="0" y="-386" type="curve" smooth="yes"/>
      <point x="364" y="-386"/>
      <point x="417" y="-262"/>
      <point x="417" y="-3" type="curve" smooth="yes"/>
      <point x="417" y="846" type="line" smooth="yes"/>
      <point x="417" y="953"/>
      <point x="369" y="1004"/>
      <point x="279" y="1004" type="curve" smooth="yes"/>
      <point x="192" y="1004"/>
      <point x="138" y="949"/>
      <point x="138" y="842" type="curve" smooth="yes"/>
      <point x="138" y="-1" type="line" smooth="yes"/>
      <point x="138" y="-162"/>
      <point x="110" y="-184"/>
      <point x="-7" y="-186" type="curve" smooth="yes"/>
      <point x="-128" y="-186"/>
      <point x="-122" y="-386"/>
    </contour>
    <contour>
      <point x="266" y="1205" type="curve" smooth="yes"/>
      <point x="360" y="1205"/>
      <point x="424" y="1263"/>
      <point x="424" y="1350" type="curve" smooth="yes"/>
      <point x="424" y="1437"/>
      <point x="361" y="1496"/>
      <point x="267" y="1496" type="curve" smooth="yes"/>
      <point x="173" y="1496"/>
      <point x="109" y="1437"/>
      <point x="109" y="1350" type="curve" smooth="yes"/>
      <point x="109" y="1263"/>
      <point x="173" y="1205"/>
    </contour>
  </outline>
</glyph>
<glyph name="k" format="1">
  <advance width="1080"/>
  <unicode hex="006B"/>
  <outline>
    <contour>
      <point x="574" y="0" type="move" name="bot"/>
    </contour>
    <contour>
      <point x="817" y="49" type="line"/>
      <point x="927" y="-84"/>
      <point x="1122" y="73"/>
      <point x="1016" y="197" type="curve" smooth="yes"/>
      <point x="698" y="549" type="line"/>
      <point x="968" y="812" type="line" smooth="yes"/>
      <point x="1070" y="917"/>
      <point x="907" y="1098"/>
      <point x="798" y="977" type="curve" smooth="yes"/>
      <point x="412" y="573" type="line"/>
      <point x="412" y="507" type="line"/>
    </contour>
    <contour>
      <point x="269" y="0" type="curve" smooth="yes"/>
      <point x="359" y="0"/>
      <point x="412" y="58"/>
      <point x="412" y="165" type="curve" smooth="yes"/>
      <point x="412" y="1281" type="line" smooth="yes"/>
      <point x="412" y="1388"/>
      <point x="360" y="1446"/>
      <point x="270" y="1446" type="curve" smooth="yes"/>
      <point x="183" y="1446"/>
      <point x="134" y="1388"/>
      <point x="134" y="1281" type="curve" smooth="yes"/>
      <point x="134" y="165" type="line" smooth="yes"/>
      <point x="134" y="58"/>
      <point x="183" y="0"/>
    </contour>
  </outline>
</glyph>
<glyph name="l" format="1">
  <advance width="533"/>
  <unicode hex="006C"/>
  <outline>
    <contour>
      <point x="244" y="1445" type="move" name="top"/>
    </contour>
    <contour>
      <point x="261" y="0" type="move" name="bot"/>
    </contour>
    <contour>
      <point x="262" y="0" type="curve" smooth="yes"/>
      <point x="353" y="0"/>
      <point x="406" y="58"/>
      <point x="406" y="165" type="curve" smooth="yes"/>
      <point x="406" y="1281" type="line" smooth="yes"/>
      <point x="406" y="1387"/>
      <point x="353" y="1445"/>
      <point x="263" y="1445" type="curve" smooth="yes"/>
      <point x="176" y="1445"/>
      <point x="127" y="1387"/>
      <point x="127" y="1281" type="curve" smooth="yes"/>
      <point x="127" y="165" type="line" smooth="yes"/>
      <point x="127" y="57"/>
      <point x="176" y="0"/>
    </contour>
  </outline>
</glyph>
<glyph name="w" format="1">
  <advance width="1726"/>
  <unicode hex="0077"/>
  <outline>
    <contour>
      <point x="874" y="1013" type="move" name="top"/>
    </contour>
    <contour>
      <point x="478" y="0" type="curve" smooth="yes"/>
      <point x="584" y="0"/>
      <point x="637" y="36"/>
      <point x="691" y="218" type="curve" smooth="yes"/>
      <point x="870" y="759" type="line"/>
      <point x="870" y="1006" type="line"/>
      <point x="765" y="1006"/>
      <point x="727" y="942"/>
      <point x="694" y="835" type="curve" smooth="yes"/>
      <point x="511" y="277" type="line"/>
      <point x="330" y="902" type="line" smooth="yes"/>
      <point x="282" y="1075"/>
      <point x="42" y="1009"/>
      <point x="93" y="839" type="curve" smooth="yes"/>
      <point x="293" y="207" type="line" smooth="yes"/>
      <point x="335" y="60"/>
      <point x="389" y="0"/>
    </contour>
    <contour>
      <point x="1262" y="0" type="curve" smooth="yes"/>
      <point x="1351" y="0"/>
      <point x="1405" y="60"/>
      <point x="1447" y="207" type="curve" smooth="yes"/>
      <point x="1647" y="839" type="line" smooth="yes"/>
      <point x="1698" y="1009"/>
      <point x="1459" y="1075"/>
      <point x="1410" y="902" type="curve" smooth="yes"/>
      <point x="1229" y="277" type="line"/>
      <point x="1046" y="835" type="line" smooth="yes"/>
      <point x="1013" y="942"/>
      <point x="975" y="1006"/>
      <point x="870" y="1006" type="curve"/>
      <point x="870" y="759" type="line"/>
      <point x="1049" y="218" type="line" smooth="yes"/>
      <point x="1103" y="36"/>
      <point x="1156" y="0"/>
    </contour>
  </outline>
</glyph>
<glyph name="x" format="1">
  <advance width="1091"/>
  <unicode hex="0078"/>
  <outline>
    <contour>
      <point x="215" y="-5" type="curve" smooth="yes"/>
      <point x="246" y="0"/>
      <point x="277" y="19"/>
      <point x="305" y="54" type="curve"/>
      <point x="560" y="359" type="line"/>
      <point x="692" y="492" type="line"/>
      <point x="964" y="815" type="line" smooth="yes"/>
      <point x="991" y="848"/>
      <point x="1003" y="880"/>
      <point x="1002" y="909" type="curve" smooth="yes"/>
      <point x="1002" y="969"/>
      <point x="950" y="1015"/>
      <point x="891" y="1015" type="curve" smooth="yes"/>
      <point x="856" y="1015"/>
      <point x="820" y="1000"/>
      <point x="790" y="963" type="curve"/>
      <point x="531" y="658" type="line"/>
      <point x="401" y="529" type="line"/>
      <point x="119" y="198" type="line" smooth="yes"/>
      <point x="94" y="168"/>
      <point x="84" y="135"/>
      <point x="84" y="106" type="curve" smooth="yes"/>
      <point x="85" y="37"/>
      <point x="150" y="-17"/>
    </contour>
    <contour>
      <point x="886" y="-7" type="curve" smooth="yes"/>
      <point x="952" y="-7"/>
      <point x="1014" y="50"/>
      <point x="1013" y="113" type="curve" smooth="yes"/>
      <point x="1013" y="146"/>
      <point x="995" y="184"/>
      <point x="968" y="218" type="curve" smooth="yes"/>
      <point x="355" y="924" type="line" smooth="yes"/>
      <point x="318" y="969"/>
      <point x="279" y="1004"/>
      <point x="235" y="1004" type="curve" smooth="yes"/>
      <point x="164" y="1004"/>
      <point x="99" y="950"/>
      <point x="100" y="881" type="curve" smooth="yes"/>
      <point x="100" y="846"/>
      <point x="120" y="807"/>
      <point x="148" y="773" type="curve" smooth="yes"/>
      <point x="756" y="73" type="line" smooth="yes"/>
      <point x="802" y="17"/>
      <point x="845" y="-7"/>
    </contour>
  </outline>
</glyph>
<glyph name="y" format="1">
  <advance width="1099"/>
  <unicode hex="0079"/>
  <outline>
    <contour>
      <point x="582" y="1030" type="move" name="top"/>
    </contour>
    <contour>
      <point x="501" y="25" type="line"/>
      <point x="641" y="285" type="line"/>
      <point x="310" y="924" type="line" smooth="yes"/>
      <point x="231" y="1080"/>
      <point x="-1" y="968"/>
      <point x="79" y="817" type="curve" smooth="yes"/>
    </contour>
    <contour>
      <point x="463" y="-351" type="curve" smooth="yes"/>
      <point x="1060" y="826" type="line" smooth="yes"/>
      <point x="1139" y="988"/>
      <point x="917" y="1096"/>
      <point x="832" y="926" type="curve" smooth="yes"/>
      <point x="240" y="-240" type="line" smooth="yes"/>
      <point x="165" y="-392"/>
      <point x="384" y="-510"/>
    </contour>
  </outline>
</glyph>
<glyph name="cent" format="1">
  <advance width="1055"/>
  <unicode hex="00A2"/>
  <outline>
    <contour>
      <point x="591" y="-286" type="curve" smooth="yes"/>
      <point x="627" y="-286"/>
      <point x="660" y="-263"/>
      <point x="660" y="-217" type="curve" smooth="yes"/>
      <point x="660" y="93" type="line"/>
      <point x="521" y="94" type="line"/>
      <point x="521" y="-208" type="line" smooth="yes"/>
      <point x="521" y="-259"/>
      <point x="551" y="-286"/>
    </contour>
    <contour>
      <point x="521" y="925" type="line"/>
      <point x="660" y="925" type="line"/>
      <point x="660" y="1205" type="line" smooth="yes"/>
      <point x="660" y="1251"/>
      <point x="627" y="1274"/>
      <point x="591" y="1274" type="curve" smooth="yes"/>
      <point x="551" y="1274"/>
      <point x="521" y="1248"/>
      <point x="521" y="1196" type="curve" smooth="yes"/>
    </contour>
    <component base="c"/>
  </outline>
</glyph>
<glyph name="yen" format="1">
  <advance width="1299"/>
  <unicode hex="00A5"/>
  <outline>
    <contour>
      <point x="222" y="292" type="curve" smooth="yes"/>
      <point x="1134" y="292" type="line" smooth="yes"/>
      <point x="1177" y="292"/>
      <point x="1198" y="330"/>
      <point x="1198" y="365" type="curve" smooth="yes"/>
      <point x="1198" y="396"/>
      <point x="1176" y="438"/>
      <point x="1134" y="438" type="curve" smooth="yes"/>
      <point x="222" y="438" type="line" smooth="yes"/>
      <point x="178" y="438"/>
      <point x="158" y="397"/>
      <point x="158" y="366" type="curve" smooth="yes"/>
      <point x="158" y="332"/>
      <point x="178" y="292"/>
    </contour>
    <contour>
      <point x="222" y="532" type="curve" smooth="yes"/>
      <point x="1134" y="532" type="line" smooth="yes"/>
      <point x="1177" y="532"/>
      <point x="1198" y="571"/>
      <point x="1198" y="605" type="curve" smooth="yes"/>
      <point x="1198" y="637"/>
      <point x="1176" y="678"/>
      <point x="1134" y="678" type="curve" smooth="yes"/>
      <point x="222" y="678" type="line" smooth="yes"/>
      <point x="178" y="678"/>
      <point x="158" y="638"/>
      <point x="158" y="606" type="curve" smooth="yes"/>
      <point x="158" y="572"/>
      <point x="178" y="532"/>
    </contour>
    <component base="Y"/>
  </outline>
</glyph>
<glyph name="section" format="1">
  <advance width="1266"/>
  <unicode hex="00A7"/>
  <outline>
    <contour>
      <point x="591" y="-34" type="curve" smooth="yes"/>
      <point x="856" y="-34"/>
      <point x="1026" y="77"/>
      <point x="1026" y="273" type="curve" smooth="yes"/>
      <point x="1026" y="395"/>
      <point x="946" y="472"/>
      <point x="832" y="517" type="curve"/>
      <point x="964" y="569"/>
      <point x="1055" y="664"/>
      <point x="1055" y="791" type="curve" smooth="yes"/>
      <point x="1055" y="1092"/>
      <point x="544" y="1069"/>
      <point x="544" y="1225" type="curve" smooth="yes"/>
      <point x="544" y="1310"/>
      <point x="640" y="1333"/>
      <point x="719" y="1333" type="curve" smooth="yes"/>
      <point x="775" y="1333"/>
      <point x="865" y="1312"/>
      <point x="918" y="1306" type="curve"/>
      <point x="960" y="1301"/>
      <point x="1006" y="1340"/>
      <point x="1006" y="1391" type="curve" smooth="yes"/>
      <point x="1006" y="1427"/>
      <point x="985" y="1464"/>
      <point x="936" y="1476" type="curve" smooth="yes"/>
      <point x="843" y="1497"/>
      <point x="768" y="1513"/>
      <point x="670" y="1513" type="curve" smooth="yes"/>
      <point x="400" y="1513"/>
      <point x="243" y="1420"/>
      <point x="243" y="1221" type="curve" smooth="yes"/>
      <point x="243" y="1105"/>
      <point x="366" y="1016"/>
      <point x="428" y="982" type="curve"/>
      <point x="299" y="944"/>
      <point x="202" y="834"/>
      <point x="202" y="723" type="curve" smooth="yes"/>
      <point x="202" y="402"/>
      <point x="735" y="454"/>
      <point x="735" y="288" type="curve" smooth="yes"/>
      <point x="735" y="187"/>
      <point x="643" y="146"/>
      <point x="532" y="146" type="curve" smooth="yes"/>
      <point x="448" y="146"/>
      <point x="362" y="172"/>
      <point x="297" y="181" type="curve" smooth="yes"/>
      <point x="246" y="188"/>
      <point x="198" y="141"/>
      <point x="198" y="91" type="curve" smooth="yes"/>
      <point x="198" y="56"/>
      <point x="218" y="26"/>
      <point x="268" y="11" type="curve" smooth="yes"/>
      <point x="346" y="-12"/>
      <point x="475" y="-34"/>
    </contour>
    <contour>
      <point x="653" y="599" type="curve"/>
      <point x="549" y="644"/>
      <point x="454" y="676"/>
      <point x="454" y="757" type="curve" smooth="yes"/>
      <point x="454" y="826"/>
      <point x="513" y="868"/>
      <point x="594" y="917" type="curve"/>
      <point x="702" y="873"/>
      <point x="812" y="842"/>
      <point x="812" y="760" type="curve" smooth="yes"/>
      <point x="812" y="689"/>
      <point x="735" y="644"/>
    </contour>
  </outline>
</glyph>
<glyph name="onesuperior" format="1">
  <advance width="707"/>
  <unicode hex="00B9"/>
  <outline>
    <contour>
      <point x="423" y="613" type="curve" smooth="yes"/>
      <point x="479" y="613"/>
      <point x="502" y="657"/>
      <point x="502" y="716" type="curve" smooth="yes"/>
      <point x="502" y="1321" type="line" smooth="yes"/>
      <point x="502" y="1389"/>
      <point x="476" y="1427"/>
      <point x="431" y="1427" type="curve" smooth="yes"/>
      <point x="410" y="1427"/>
      <point x="393" y="1418"/>
      <point x="376" y="1407" type="curve" smooth="yes"/>
      <point x="183" y="1293" type="line" smooth="yes"/>
      <point x="157" y="1277"/>
      <point x="146" y="1259"/>
      <point x="146" y="1237" type="curve" smooth="yes"/>
      <point x="146" y="1205"/>
      <point x="172" y="1174"/>
      <point x="206" y="1174" type="curve" smooth="yes"/>
      <point x="217" y="1174"/>
      <point x="228" y="1177"/>
      <point x="238" y="1183" type="curve" smooth="yes"/>
      <point x="346" y="1249" type="line"/>
      <point x="346" y="725" type="line" smooth="yes"/>
      <point x="346" y="653"/>
      <point x="373" y="613"/>
    </contour>
  </outline>
</glyph>
<glyph name="Lslash" format="1">
  <advance width="1186"/>
  <unicode hex="0141"/>
  <outline>
    <contour>
      <point x="71" y="577" type="curve" smooth="yes"/>
      <point x="751" y="808" type="line" smooth="yes"/>
      <point x="870" y="848"/>
      <point x="800" y="1018"/>
      <point x="694" y="983" type="curve" smooth="yes"/>
      <point x="17" y="760" type="line" smooth="yes"/>
      <point x="-104" y="720"/>
      <point x="-43" y="539"/>
    </contour>
    <component base="L"/>
  </outline>
</glyph>
<glyph name="oe" format="1">
  <advance width="1871"/>
  <unicode hex="0153"/>
  <outline>
    <contour>
      <point x="1304" y="-30" type="curve" smooth="yes"/>
      <point x="1489" y="-30"/>
      <point x="1723" y="35"/>
      <point x="1723" y="167" type="curve" smooth="yes"/>
      <point x="1723" y="210"/>
      <point x="1697" y="250"/>
      <point x="1656" y="250" type="curve" smooth="yes"/>
      <point x="1647" y="250"/>
      <point x="1637" y="248"/>
      <point x="1628" y="245" type="curve" smooth="yes"/>
      <point x="1546" y="213"/>
      <point x="1463" y="171"/>
      <point x="1355" y="171" type="curve" smooth="yes"/>
      <point x="1149" y="171"/>
      <point x="1084" y="291"/>
      <point x="1081" y="453" type="curve"/>
      <point x="1682" y="453" type="line" smooth="yes"/>
      <point x="1742" y="453"/>
      <point x="1780" y="477"/>
      <point x="1780" y="531" type="curve"/>
      <point x="1776" y="826"/>
      <point x="1623" y="1036"/>
      <point x="1312" y="1036" type="curve" smooth="yes"/>
      <point x="1151" y="1036"/>
      <point x="1029" y="963"/>
      <point x="949" y="852" type="curve"/>
      <point x="874" y="959"/>
      <point x="756" y="1030"/>
      <point x="592" y="1030" type="curve" smooth="yes"/>
      <point x="240" y="1030"/>
      <point x="71" y="789"/>
      <point x="71" y="502" type="curve" smooth="yes"/>
      <point x="71" y="215"/>
      <point x="244" y="-22"/>
      <point x="592" y="-22" type="curve" smooth="yes"/>
      <point x="754" y="-22"/>
      <point x="869" y="49"/>
      <point x="946" y="160" type="curve"/>
      <point x="1023" y="41"/>
      <point x="1142" y="-30"/>
    </contour>
    <contour>
      <point x="592" y="153" type="curve" smooth="yes"/>
      <point x="422" y="153"/>
      <point x="354" y="313"/>
      <point x="354" y="502" type="curve" smooth="yes"/>
      <point x="354" y="695"/>
      <point x="423" y="853"/>
      <point x="592" y="853" type="curve" smooth="yes"/>
      <point x="763" y="853"/>
      <point x="826" y="687"/>
      <point x="826" y="495" type="curve"/>
      <point x="822" y="304"/>
      <point x="755" y="153"/>
    </contour>
    <contour>
      <point x="1077" y="595" type="line"/>
      <point x="1087" y="751"/>
      <point x="1163" y="865"/>
      <point x="1301" y="865" type="curve" smooth="yes"/>
      <point x="1445" y="865"/>
      <point x="1518" y="763"/>
      <point x="1528" y="595" type="curve"/>
    </contour>
  </outline>
</glyph>
<glyph name="tilde" format="1">
  <advance width="569"/>
  <unicode hex="02DC"/>
  <outline>
    <contour>
      <point x="293" y="1040" type="move" name="_top"/>
    </contour>
    <contour>
      <point x="3" y="1206" type="curve" smooth="yes"/>
      <point x="31" y="1206"/>
      <point x="57" y="1215"/>
      <point x="75" y="1247" type="curve" smooth="yes"/>
      <point x="93" y="1279"/>
      <point x="114" y="1306"/>
      <point x="147" y="1306" type="curve" smooth="yes"/>
      <point x="217" y="1306"/>
      <point x="314" y="1206"/>
      <point x="424" y="1206" type="curve" smooth="yes"/>
      <point x="529" y="1206"/>
      <point x="612" y="1281"/>
      <point x="617" y="1409" type="curve"/>
      <point x="618" y="1443"/>
      <point x="591" y="1466"/>
      <point x="562" y="1467" type="curve" smooth="yes"/>
      <point x="556" y="1471"/>
      <point x="549" y="1474"/>
      <point x="541" y="1474" type="curve" smooth="yes"/>
      <point x="469" y="1457"/>
      <point x="473" y="1374"/>
      <point x="423" y="1374" type="curve" smooth="yes"/>
      <point x="354" y="1374"/>
      <point x="256" y="1472"/>
      <point x="137" y="1472" type="curve" smooth="yes"/>
      <point x="22" y="1472"/>
      <point x="-41" y="1398"/>
      <point x="-59" y="1277" type="curve"/>
      <point x="-60" y="1273"/>
      <point x="-61" y="1270"/>
      <point x="-61" y="1265" type="curve" smooth="yes"/>
      <point x="-61" y="1226"/>
      <point x="-32" y="1206"/>
    </contour>
  </outline>
</glyph>
<glyph name="commaturnedabovecomb" format="1">
  <advance width="600"/>
  <unicode hex="0312"/>
  <outline>
    <contour>
      <point x="291" y="991" type="move" name="_top"/>
    </contour>
    <contour>
      <point x="199" y="1199" type="curve"/>
      <point x="367" y="1199" type="line"/>
      <point x="399" y="1200"/>
      <point x="432" y="1208"/>
      <point x="440" y="1255" type="curve" smooth="yes"/>
      <point x="524" y="1751" type="line" smooth="yes"/>
      <point x="526" y="1763"/>
      <point x="528" y="1793"/>
      <point x="500" y="1794" type="curve"/>
      <point x="397" y="1794" type="line"/>
      <point x="368" y="1795"/>
      <point x="353" y="1783"/>
      <point x="341" y="1751" type="curve" smooth="yes"/>
      <point x="165" y="1255" type="line" smooth="yes"/>
      <point x="160" y="1241"/>
      <point x="157" y="1202"/>
    </contour>
  </outline>
</glyph>
<glyph name="summation" format="1">
  <advance width="1251"/>
  <unicode hex="2211"/>
  <outline>
    <contour>
      <point x="132" y="-201" type="curve" smooth="yes"/>
      <point x="1194" y="-201" type="line" smooth="yes"/>
      <point x="1276" y="-201"/>
      <point x="1313" y="-153"/>
      <point x="1313" y="-86" type="curve" smooth="yes"/>
      <point x="1313" y="-3"/>
      <point x="1254" y="29"/>
      <point x="1177" y="29" type="curve" smooth="yes"/>
      <point x="391" y="29" type="line"/>
      <point x="894" y="655" type="line"/>
      <point x="435" y="1237" type="line"/>
      <point x="1137" y="1237" type="line" smooth="yes"/>
      <point x="1221" y="1237"/>
      <point x="1271" y="1275"/>
      <point x="1271" y="1346" type="curve" smooth="yes"/>
      <point x="1271" y="1415"/>
      <point x="1228" y="1455"/>
      <point x="1154" y="1455" type="curve" smooth="yes"/>
      <point x="178" y="1455" type="line" smooth="yes"/>
      <point x="87" y="1455"/>
      <point x="51" y="1422"/>
      <point x="51" y="1368" type="curve" smooth="yes"/>
      <point x="51" y="1331"/>
      <point x="73" y="1283"/>
      <point x="99" y="1250" type="curve" smooth="yes"/>
      <point x="595" y="623" type="line"/>
      <point x="75" y="-16" type="line" smooth="yes"/>
      <point x="51" y="-47"/>
      <point x="28" y="-88"/>
      <point x="28" y="-124" type="curve" smooth="yes"/>
      <point x="28" y="-163"/>
      <point x="58" y="-201"/>
    </contour>
  </outline>
</glyph>
<glyph name="caron.alt" format="1">
  <advance width="600"/>
  <outline>
    <contour>
      <point x="1" y="228" type="move" name="_caron.alt"/>
    </contour>
    <contour>
      <point x="312" y="295" type="curve"/>
      <point x="419" y="295" type="line"/>
      <point x="448" y="294"/>
      <point x="464" y="306"/>
      <point x="475" y="338" type="curve" smooth="yes"/>
      <point x="644" y="793" type="line" smooth="yes"/>
      <point x="649" y="807"/>
      <point x="652" y="846"/>
      <point x="610" y="849" type="curve"/>
      <point x="440" y="849" type="line"/>
      <point x="408" y="848"/>
      <point x="375" y="840"/>
      <point x="367" y="793" type="curve" smooth="yes"/>
      <point x="288" y="338" type="line" smooth="yes"/>
      <point x="286" y="326"/>
      <point x="284" y="296"/>
    </contour>
  </outline>
</glyph>
